<svg xmlns="http://www.w3.org/2000/svg" viewBox="0 0 64 64">
  <!-- Simplified Upper Cumberland Well Pump shield favicon -->
  <path d="M32 2 L58 9 V34 C58 48 47 58 32 62 C17 58 6 48 6 34 V9 Z" fill="#0C3158" stroke="#FFFFFF" stroke-width="2"/>
  <path d="M32 8 L52 13.5 V33.5 C52 44.5 43.5 52.5 32 56 C20.5 52.5 12 44.5 12 33.5 V13.5 Z" fill="#126FBA"/>
  <path d="M12 33.5 C18 30 26 30 32 33.5 C38 37 46 37 52 33.5 C52 44.5 43.5 52.5 32 56 C20.5 52.5 12 44.5 12 33.5 Z" fill="#245F35"/>
  <path d="M32 14 C32 14 24 25.5 24 31.5 C24 36 27.6 39.5 32 39.5 C36.4 39.5 40 36 40 31.5 C40 25.5 32 14 32 14 Z" fill="#FFFFFF"/>
  <path d="M32 18.5 C32 18.5 26.8 26.5 26.8 31.3 C26.8 34.3 29.1 36.7 32 36.7 C34.9 36.7 37.2 34.3 37.2 31.3 C37.2 26.5 32 18.5 32 18.5 Z" fill="#2C9AD1"/>
</svg>
